<svg class="row column" xmlns="http://www.w3.org/2000/svg"	viewBox="0 0 128 32">
	<defs>
		<filter style="color-interpolation-filters:sRGB;" id="drop-shadow">
			<feFlood flood-opacity="0.4" flood-color="rgb(0,0,0)" result="flood" />
			<feComposite in="flood" in2="SourceGraphic" operator="in" result="composite1" />
			<feGaussianBlur in="composite1" stdDeviation="0.5" result="blur" />
			<feOffset dx=".4" dy=".4" result="offset" />
			<feComposite in="SourceGraphic" in2="offset" operator="over" result="composite2" />
		</filter>
	</defs>
	<g id="engage-initiate" onclick="toggleEngagementSelection('engage-initiate')">
		<path class="step"
			d="m 60.472656,86.929688 c -4.152495,0 -7.558594,3.406098 -7.558594,7.558593 0,4.152495 3.406099,7.558589 7.558594,7.558599 H 78.625 113.38672 l 7.55859,-7.558599 -7.55859,-7.558593 H 78.625 Z m 0,3.779296 c 2.10963,0 3.779297,1.669667 3.779297,3.779297 0,2.10963 -1.669667,3.779297 -3.779297,3.779297 -2.10963,0 -3.779297,-1.669667 -3.779297,-3.779297 0,-2.10963 1.669667,-3.779297 3.779297,-3.779297 z"
			transform="scale(0.26458333)"
			id="step-learn" />
		<text x="16" y="20"><tspan>Initiate</tspan></text>
	</g>
	<g id="engage-design" onclick="toggleEngagementSelection('engage-design')">
		<path class="step"
			d="m 120.94531,86.929688 7.5586,7.558593 -7.5586,7.558599 h 60.47266 18.15234 34.76172 l 7.55859,-7.558599 -7.55859,-7.558593 h -34.76172 -18.15234 z m 60.47266,3.779296 c 2.10976,0 3.7793,1.669539 3.7793,3.779297 0,2.109759 -1.66954,3.779297 -3.7793,3.779297 -2.10976,0 -3.7793,-1.669538 -3.7793,-3.779297 0,-2.109758 1.66954,-3.779297 3.7793,-3.779297 z"
			transform="scale(0.26458333)"
			id="step-design" />
		<text x="48" y="20"><tspan>Design</tspan></text>
	</g>
	<g id="engage-execute" onclick="toggleEngagementSelection('engage-execute')">
	<path class="step"
			d="m 241.89062,86.929688 7.5586,7.558593 -7.5586,7.558599 h 60.47071 c 4.15236,0 7.56054,-3.406232 7.56055,-7.558599 0,-4.152366 -3.40819,-7.558593 -7.56055,-7.558593 z m 68.92188,0 c 1.79215,2.003753 2.88867,4.644513 2.88867,7.558593 0,2.914383 -1.09619,5.554769 -2.88867,7.558599 h 4.61719 c 1.29526,-2.227732 2.05078,-4.804861 2.05078,-7.558599 0,-2.753314 -0.75587,-5.331107 -2.05078,-7.558593 z m 8.87109,0 c 1.00817,2.314445 1.57618,4.867169 1.57618,7.558593 0,2.691425 -0.56801,5.244139 -1.57618,7.558599 h 0.83203 3.22266 c 0.83926,-2.365749 1.30078,-4.909188 1.30078,-7.558599 0,-2.649407 -0.46152,-5.19286 -1.30078,-7.558593 h -3.22266 z m 8.03711,0 c 0.71069,2.394991 1.09766,4.929962 1.09766,7.558593 0,2.628635 -0.38697,5.163593 -1.09766,7.558599 h 3.92188 c 0.62386,-2.416606 0.95508,-4.949406 0.95508,-7.558599 0,-2.609193 -0.33124,-5.141999 -0.95508,-7.558593 z m 7.80664,0 c 0.55051,2.431682 0.84961,4.958607 0.84961,7.558593 0,2.599986 -0.29911,5.126901 -0.84961,7.558599 h 3.8711 c 0.49709,-2.442647 0.75781,-4.970658 0.75781,-7.558599 0,-2.587937 -0.26071,-5.115961 -0.75781,-7.558593 z m 7.71289,0 c 0.4496,2.45222 0.69727,4.975229 0.69727,7.558593 0,2.583368 -0.24768,5.106363 -0.69727,7.558599 h 3.83594 c 0.41374,-2.459477 0.64063,-4.982533 0.64063,-7.558599 0,-2.576065 -0.22688,-5.099127 -0.64063,-7.558593 z m -40.8789,3.779296 c 2.10976,0 3.78125,1.669539 3.78125,3.779297 0,2.109759 -1.67149,3.779297 -3.78125,3.779297 -2.10976,0 -3.7793,-1.669538 -3.7793,-3.779297 0,-2.109758 1.66954,-3.779297 3.7793,-3.779297 z"
			transform="scale(0.26458333)"
			id="step-execute" />
		<text x="80" y="20"><tspan>Execute</tspan></text>
	</g>
	<g id="engage-scale" onclick="toggleEngagementSelection('engage-scale')">
		<path class="step"
			d="m 378.59375,86.929688 c -0.41374,2.459497 -0.64063,4.982494 -0.64063,7.558593 0,2.576104 0.22677,5.099093 0.64063,7.558599 h 3.83594 c -0.44962,-2.452231 -0.69727,-4.975231 -0.69727,-7.558599 0,-2.583364 0.24754,-5.106372 0.69727,-7.558593 z m 7.67773,0 c -0.49708,2.442636 -0.75976,4.970652 -0.75976,7.558593 0,2.587941 0.26268,5.115957 0.75976,7.558599 h 3.8711 c -0.55049,-2.431693 -0.85156,-4.958613 -0.85156,-7.558599 0,-2.599986 0.30122,-5.12691 0.85156,-7.558593 z m 7.75391,0 c -0.62385,2.416595 -0.95508,4.9494 -0.95508,7.558593 0,2.609193 0.33108,5.141998 0.95508,7.558599 h 3.92188 c -0.71071,-2.395001 -1.09766,-4.929964 -1.09766,-7.558599 0,-2.628631 0.38695,-5.163601 1.09766,-7.558593 z m 7.9043,0 c -0.83928,2.365734 -1.29883,4.909186 -1.29883,7.558593 0,2.649411 0.45955,5.192855 1.29883,7.558599 h 4.05469 c -1.00819,-2.314455 -1.57422,-4.867174 -1.57422,-7.558599 0,-2.691424 0.56603,-5.244147 1.57422,-7.558593 z m 8.30859,0 c -1.29479,2.22743 -2.04883,4.805381 -2.04883,7.558593 0,2.753632 0.75366,5.330929 2.04883,7.558599 h 4.61914 c -1.79248,-2.00383 -2.88867,-4.644216 -2.88867,-7.558599 0,-2.91408 1.09653,-5.554839 2.88867,-7.558593 z m 13.06836,0 c -4.15238,0 -7.55859,3.406227 -7.55859,7.558593 0,4.152367 3.40621,7.558599 7.55859,7.558599 4.15238,0 7.55859,-3.406232 7.55859,-7.558599 0,-4.152366 -3.40621,-7.558593 -7.55859,-7.558593 z m 8.45117,0 c 1.79214,2.003754 2.88867,4.644513 2.88867,7.558593 0,2.914383 -1.09619,5.554769 -2.88867,7.558599 h 4.61719 c 1.29528,-2.227727 2.05078,-4.804861 2.05078,-7.558599 0,-2.753314 -0.75588,-5.331106 -2.05078,-7.558593 z m 8.8711,0 c 1.00819,2.314446 1.57617,4.867169 1.57617,7.558593 0,2.691425 -0.56798,5.244144 -1.57617,7.558599 h 0.83203 3.22265 c 0.83925,-2.365744 1.30079,-4.909188 1.30079,-7.558599 0,-2.649407 -0.46154,-5.192859 -1.30079,-7.558593 h -3.22265 z m 8.03711,0 c 0.7107,2.394992 1.09765,4.929962 1.09765,7.558593 0,2.628635 -0.38695,5.163598 -1.09765,7.558599 h 3.92187 c 0.62385,-2.416601 0.95508,-4.949406 0.95508,-7.558599 0,-2.609193 -0.33108,-5.141998 -0.95508,-7.558593 z m 7.80664,0 c 0.55048,2.431683 0.84961,4.958607 0.84961,7.558593 0,2.599986 -0.29897,5.126906 -0.84961,7.558599 h 3.87109 c 0.49708,-2.442642 0.75781,-4.970658 0.75781,-7.558599 0,-2.587937 -0.26076,-5.11596 -0.75781,-7.558593 z m 7.71289,0 c 0.44961,2.452221 0.69726,4.975229 0.69726,7.558593 0,2.583368 -0.24757,5.106368 -0.69726,7.558599 h 3.83593 c 0.41375,-2.459472 0.64063,-4.982533 0.64063,-7.558599 0,-2.576065 -0.22677,-5.099126 -0.64063,-7.558593 z m -40.87891,3.779296 c 2.10977,0 3.7793,1.669539 3.7793,3.779297 0,2.109759 -1.66953,3.779297 -3.7793,3.779297 -2.10977,0 -3.7793,-1.669538 -3.7793,-3.779297 0,-2.109758 1.66953,-3.779297 3.7793,-3.779297 z"
			transform="scale(0.26458333)"
			id="step-scale" />
		<text x="112" y="20"><tspan>Scale</tspan></text>
	</g>
	<g id="engage-refine" onclick="toggleEngagementSelection('engage-refine')">
		<path class="iteration"
			d="m 65.007172,10.085433 a 6.9999999,6.9999999 0 0 0 -8.079954,5.719864 6.9999999,6.9999999 0 0 0 1.189869,5.221782 l 2.089939,0.357428 0.357342,-2.089431 a 3.9999999,3.9999999 0 0 1 -0.680265,-2.984083 3.9999999,3.9999999 0 0 1 4.617285,-3.268165 3.9999999,3.9999999 0 0 1 3.268254,4.616776 3.9999999,3.9999999 0 0 1 -1.63278,2.588499 l 2.089431,0.357341 -0.357341,2.089431 A 6.9999999,6.9999999 0 0 0 70.726527,18.1653 6.9999999,6.9999999 0 0 0 65.007172,10.085433 Z"
			id="step-iterate" />
		<text x="64" y="8"><tspan>Refine</tspan></text>
	</g>
 </svg>