<?xml version="1.0" encoding="UTF-8" standalone="no"?>
<!-- Generator: Adobe Illustrator 16.0.4, SVG Export Plug-In . SVG Version: 
	6.00 Build 0) -->

<svg
   xmlns:dc="http://purl.org/dc/elements/1.1/"
   xmlns:cc="http://creativecommons.org/ns#"
   xmlns:rdf="http://www.w3.org/1999/02/22-rdf-syntax-ns#"
   xmlns:svg="http://www.w3.org/2000/svg"
   xmlns="http://www.w3.org/2000/svg"
   xmlns:sodipodi="http://sodipodi.sourceforge.net/DTD/sodipodi-0.dtd"
   xmlns:inkscape="http://www.inkscape.org/namespaces/inkscape"
   version="1.1"
   x="0px"
   y="0px"
   width="517.03003"
   height="485.479"
   viewBox="0 0 517.03003 485.479"
   enable-background="new 0 0 792 612"
   xml:space="preserve"
   id="svg2"
   inkscape:version="0.91 r13725"
   sodipodi:docname="teams.svg"><metadata
     id="metadata182"><rdf:RDF><cc:Work
         rdf:about=""><dc:format>image/svg+xml</dc:format><dc:type
           rdf:resource="http://purl.org/dc/dcmitype/StillImage" /><dc:title /></cc:Work></rdf:RDF></metadata><defs
     id="defs180"><style
       type="text/css"
       id="style5894">
	@import url(http://fonts.googleapis.com/css?family=Jura:600);
	
 </style></defs><sodipodi:namedview
     pagecolor="#ffffff"
     bordercolor="#666666"
     borderopacity="1"
     objecttolerance="10"
     gridtolerance="10"
     guidetolerance="10000"
     inkscape:pageopacity="0"
     inkscape:pageshadow="2"
     inkscape:window-width="1280"
     inkscape:window-height="778"
     id="namedview178"
     showgrid="false"
     inkscape:zoom="0.73"
     inkscape:cx="375.33575"
     inkscape:cy="177.98861"
     inkscape:window-x="-5"
     inkscape:window-y="0"
     inkscape:window-maximized="0"
     inkscape:current-layer="organization"
     fit-margin-top="0.1"
     fit-margin-left="0.1"
     fit-margin-right="0.1"
     fit-margin-bottom="0.1"
     inkscape:snap-perpendicular="true"
     inkscape:snap-tangential="true"><sodipodi:guide
       position="0.1,48.425004"
       orientation="-436.954,0"
       id="guide4482" /><sodipodi:guide
       position="0.1,485.379"
       orientation="0,473.506"
       id="guide4484" /><sodipodi:guide
       position="473.606,485.379"
       orientation="436.954,0"
       id="guide4486" /><sodipodi:guide
       position="473.606,48.425004"
       orientation="0,-473.506"
       id="guide4488" /><sodipodi:guide
       position="47.93,0.10000391"
       orientation="-439.006,0"
       id="guide4501" /><sodipodi:guide
       position="47.93,439.106"
       orientation="0,469"
       id="guide4503" /><sodipodi:guide
       position="516.93,439.106"
       orientation="439.006,0"
       id="guide4505" /><sodipodi:guide
       position="516.93,0.10000391"
       orientation="0,-469"
       id="guide4507" /></sodipodi:namedview><g
     id="external"
     inkscape:label="External to the organization"
     inkscape:groupmode="layer"
     style="display:inline"
     transform="translate(-88.07,-84.627)"><rect
       style="opacity:0.5;fill:#6d8f9f"
       id="rect4477"
       width="473.50601"
       height="436.95401"
       x="88.169998"
       y="84.726997" /><rect
       style="opacity:0.5;fill:#fdd6a9"
       id="rect4498"
       width="469"
       height="439.00601"
       x="136"
       y="131" /><rect
       style="fill:#87c987"
       id="rect15"
       height="390.681"
       width="425.67599"
       y="131"
       x="136" /><text
       transform="translate(415.3281,113.4316)"
       font-size="21"
       id="text32"
       style="font-size:21px;font-family:Jura-DemiBold,Jura;fill:#ffffff">Customers</text>
<text
       transform="translate(412.5195,551.0664)"
       font-size="21"
       id="text34"
       style="font-size:21px;font-family:Jura-DemiBold,Jura;fill:#563211">Community</text>
</g><g
     id="organization"
     inkscape:label="Organization"
     inkscape:groupmode="layer"
     style="display:inline"
     transform="translate(-88.07,-84.627)"><path
       stroke-miterlimit="10"
       d="m 521.51,375.226 c 0,5.033 -4.082,9.114 -9.115,9.114 l -315.839,0 c -5.034,0 -9.115,-4.081 -9.115,-9.114 l 0,-66.998 c 0,-5.033 4.081,-9.115 9.115,-9.115 l 315.838,0 c 5.033,0 9.115,4.082 9.115,9.115 l 0,66.998 z"
       id="path38"
       inkscape:connector-curvature="0"
       style="fill:#df8f32;stroke:#87c987;stroke-width:2;stroke-miterlimit:10" /><path
       stroke-miterlimit="10"
       d="m 515.17,368.553 c 0,5.033 -4.082,9.114 -9.115,9.114 l -315.839,0 c -5.034,0 -9.115,-4.081 -9.115,-9.114 l 0,-66.998 c 0,-5.033 4.081,-9.115 9.115,-9.115 l 315.838,0 c 5.033,0 9.115,4.082 9.115,9.115 l 0,66.998 z"
       id="path40"
       inkscape:connector-curvature="0"
       style="fill:#df8f32;stroke:#87c987;stroke-width:2;stroke-miterlimit:10" /><path
       stroke-miterlimit="10"
       d="m 508.83,361.879 c 0,5.033 -4.08,9.114 -9.115,9.114 l -315.838,0 c -5.034,0 -9.115,-4.081 -9.115,-9.114 l 0,-66.998 c 0,-5.033 4.081,-9.115 9.115,-9.115 l 315.838,0 c 5.035,0 9.115,4.082 9.115,9.115 l 0,66.998 z"
       id="path42"
       inkscape:connector-curvature="0"
       style="fill:#df8f32;stroke:#87c987;stroke-width:2;stroke-miterlimit:10" /><path
       stroke-miterlimit="10"
       d="m 502.49,355.206 c 0,5.033 -4.08,9.114 -9.115,9.114 l -315.837,0 c -5.034,0 -9.115,-4.081 -9.115,-9.114 l 0,-66.998 c 0,-5.033 4.081,-9.115 9.115,-9.115 l 315.837,0 c 5.035,0 9.115,4.082 9.115,9.115 l 0,66.998 z"
       id="path44"
       inkscape:connector-curvature="0"
       style="fill:#df8f32;stroke:#87c987;stroke-width:2;stroke-miterlimit:10" /><g
       id="g46"><text
         transform="translate(166.2754,269.1914)"
         font-size="16"
         id="text48"
         style="font-size:16px;font-family:Jura-DemiBold,Jura;fill:#ffffff">Department</text>
<g
         id="g50"><path
           stroke-miterlimit="10"
           d="m 273.104,498.537 c 0,4.695 -3.807,8.504 -8.504,8.504 l -104.086,0 c -4.697,0 -8.504,-3.809 -8.504,-8.504 l 0,-245.682 c 0,-4.697 3.807,-8.504 8.504,-8.504 l 104.086,0 c 4.697,0 8.504,3.807 8.504,8.504 l 0,245.682 z"
           id="path52"
           inkscape:connector-curvature="0"
           style="fill:none;stroke:#ffffff;stroke-miterlimit:10;stroke-dasharray:5.0196, 5.0196" /></g><g
         id="g54"><path
           stroke-miterlimit="10"
           d="m 258.098,487.421 c 0,5.033 -4.081,9.114 -9.115,9.114 l -53.833,0 c -5.034,0 -9.115,-4.081 -9.115,-9.114 l 0,-66.998 c 0,-5.033 4.081,-9.115 9.115,-9.115 l 53.833,0 c 5.034,0 9.115,4.082 9.115,9.115 l 0,66.998 z"
           id="path56"
           inkscape:connector-curvature="0"
           style="fill:#df8f32;stroke:#87c987;stroke-width:2;stroke-miterlimit:10" /><path
           stroke-miterlimit="10"
           d="m 251.758,480.748 c 0,5.033 -4.081,9.114 -9.115,9.114 l -53.833,0 c -5.034,0 -9.115,-4.081 -9.115,-9.114 l 0,-66.998 c 0,-5.033 4.081,-9.115 9.115,-9.115 l 53.833,0 c 5.034,0 9.115,4.082 9.115,9.115 l 0,66.998 z"
           id="path58"
           inkscape:connector-curvature="0"
           style="fill:#df8f32;stroke:#87c987;stroke-width:2;stroke-miterlimit:10" /><path
           stroke-miterlimit="10"
           d="m 245.418,474.074 c 0,5.033 -4.081,9.114 -9.115,9.114 l -53.833,0 c -5.034,0 -9.115,-4.081 -9.115,-9.114 l 0,-66.998 c 0,-5.033 4.081,-9.115 9.115,-9.115 l 53.833,0 c 5.034,0 9.115,4.082 9.115,9.115 l 0,66.998 z"
           id="path60"
           inkscape:connector-curvature="0"
           style="fill:#df8f32;stroke:#87c987;stroke-width:2;stroke-miterlimit:10" /><path
           stroke-miterlimit="10"
           d="m 239.079,467.401 c 0,5.033 -4.081,9.114 -9.115,9.114 l -53.833,0 c -5.034,0 -9.115,-4.081 -9.115,-9.114 l 0,-66.998 c 0,-5.033 4.081,-9.115 9.115,-9.115 l 53.833,0 c 5.034,0 9.115,4.082 9.115,9.115 l 0,66.998 z"
           id="path62"
           inkscape:connector-curvature="0"
           style="fill:#df8f32;stroke:#87c987;stroke-width:2;stroke-miterlimit:10" /><g
           id="g64"><g
             id="g66"><g
               transform="translate(189.6333,437.7041)"
               style="font-size:32px;font-family:FontAwesome;fill:#ffffff"
               id="text68"><path
                 d="m 18.285714,-18.285714 0,-8.428572 q 0.392857,0.25 0.642857,0.5 l 7.285715,7.285715 q 0.25,0.25 0.5,0.642857 l -8.428572,0 z M 16,-17.714286 Q 16,-17 16.5,-16.5 17,-16 17.714286,-16 l 9.714285,0 0,18.8571429 q 0,0.7142857 -0.5,1.2142857 -0.5,0.5 -1.214285,0.5 l -24.0000003,0 Q 1,4.5714286 0.5,4.0714286 0,3.5714286 0,2.8571429 L 0,-25.714286 q 0,-0.714285 0.5,-1.214285 0.5,-0.5 1.2142857,-0.5 l 14.2857143,0 0,9.714285 z"
                 style="font-size:32px;font-family:FontAwesome;fill:#ffffff"
                 id="path5991" /></g></g></g><text
           transform="translate(176.5264,465.3994)"
           font-size="16"
           id="text70"
           style="font-size:16px;font-family:Jura-DemiBold,Jura;fill:#ffffff">Project</text>
</g><g
         id="g72"><g
           id="g74"><g
             transform="translate(194.7563,329.5146)"
             style="font-size:49.84120178px;font-family:FontAwesome;fill:#ffffff"
             id="text76"><path
               d="m 35.600858,-3.8104044 q 0,3.03163562 -1.752229,5.2010629 -1.724417,2.1694273 -4.171976,2.1694273 l -23.7524477,0 q -2.447559,0 -4.1997887,-2.1694273 Q 0,-0.77876878 0,-3.8104044 0,-6.1745239 0.22250537,-8.2605117 0.4728239,-10.374313 1.1125268,-12.488114 q 0.639703,-2.141614 1.6131639,-3.643525 1.0012742,-1.529724 2.6144381,-2.475372 1.640977,-0.973461 3.754778,-0.973461 3.6435252,3.560086 8.7055222,3.560086 5.061997,0 8.705523,-3.560086 2.113801,0 3.726964,0.973461 1.640978,0.945648 2.614439,2.475372 1.001274,1.501911 1.640977,3.643525 0.639703,2.113801 0.862208,4.2276023 0.250318,2.0859878 0.250318,4.4501073 z M 25.337798,-36.018056 q 3.142889,3.115075 3.142889,7.537369 0,4.422294 -3.142889,7.565183 -3.115075,3.115075 -7.537369,3.115075 -4.422294,0 -7.565182,-3.115075 -3.1150753,-3.142889 -3.1150753,-7.565183 0,-4.422294 3.1150753,-7.537369 3.142888,-3.142888 7.565182,-3.142888 4.422294,0 7.537369,3.142888 z"
               style="font-size:49.84120178px;font-family:FontAwesome;fill:#ffffff"
               id="path5976" /></g></g></g></g><g
       id="g78"><text
         transform="translate(297.2876,269.1914)"
         font-size="16"
         id="text80"
         style="font-size:16px;font-family:Jura-DemiBold,Jura;fill:#ffffff">Department</text>
<g
         id="g82"><path
           stroke-miterlimit="10"
           d="m 404.116,498.537 c 0,4.695 -3.808,8.504 -8.504,8.504 l -104.086,0 c -4.697,0 -8.504,-3.809 -8.504,-8.504 l 0,-245.682 c 0,-4.697 3.807,-8.504 8.504,-8.504 l 104.086,0 c 4.696,0 8.504,3.807 8.504,8.504 l 0,245.682 z"
           id="path84"
           inkscape:connector-curvature="0"
           style="fill:none;stroke:#ffffff;stroke-miterlimit:10;stroke-dasharray:5.0196, 5.0196" /></g><g
         id="g86"><path
           stroke-miterlimit="10"
           d="m 389.11,487.421 c 0,5.033 -4.081,9.114 -9.115,9.114 l -53.833,0 c -5.034,0 -9.115,-4.081 -9.115,-9.114 l 0,-66.998 c 0,-5.033 4.081,-9.115 9.115,-9.115 l 53.833,0 c 5.034,0 9.115,4.082 9.115,9.115 l 0,66.998 z"
           id="path88"
           inkscape:connector-curvature="0"
           style="fill:#df8f32;stroke:#87c987;stroke-width:2;stroke-miterlimit:10" /><path
           stroke-miterlimit="10"
           d="m 382.77,480.748 c 0,5.033 -4.081,9.114 -9.115,9.114 l -53.833,0 c -5.034,0 -9.115,-4.081 -9.115,-9.114 l 0,-66.998 c 0,-5.033 4.081,-9.115 9.115,-9.115 l 53.833,0 c 5.034,0 9.115,4.082 9.115,9.115 l 0,66.998 z"
           id="path90"
           inkscape:connector-curvature="0"
           style="fill:#df8f32;stroke:#87c987;stroke-width:2;stroke-miterlimit:10" /><path
           stroke-miterlimit="10"
           d="m 376.431,474.074 c 0,5.033 -4.081,9.114 -9.115,9.114 l -53.833,0 c -5.034,0 -9.115,-4.081 -9.115,-9.114 l 0,-66.998 c 0,-5.033 4.081,-9.115 9.115,-9.115 l 53.833,0 c 5.034,0 9.115,4.082 9.115,9.115 l 0,66.998 z"
           id="path92"
           inkscape:connector-curvature="0"
           style="fill:#df8f32;stroke:#87c987;stroke-width:2;stroke-miterlimit:10" /><path
           stroke-miterlimit="10"
           d="m 370.091,467.401 c 0,5.033 -4.081,9.114 -9.115,9.114 l -53.833,0 c -5.034,0 -9.115,-4.081 -9.115,-9.114 l 0,-66.998 c 0,-5.033 4.081,-9.115 9.115,-9.115 l 53.833,0 c 5.034,0 9.115,4.082 9.115,9.115 l 0,66.998 z"
           id="path94"
           inkscape:connector-curvature="0"
           style="fill:#df8f32;stroke:#87c987;stroke-width:2;stroke-miterlimit:10" /><g
           id="g96"><g
             id="g98"><g
               transform="translate(320.6455,437.7041)"
               style="font-size:32px;font-family:FontAwesome;fill:#ffffff"
               id="text100"><path
                 d="m 18.285714,-18.285714 0,-8.428572 q 0.392857,0.25 0.642857,0.5 l 7.285715,7.285715 q 0.25,0.25 0.5,0.642857 l -8.428572,0 z M 16,-17.714286 Q 16,-17 16.5,-16.5 17,-16 17.714286,-16 l 9.714285,0 0,18.8571429 q 0,0.7142857 -0.5,1.2142857 -0.5,0.5 -1.214285,0.5 l -24.0000003,0 Q 1,4.5714286 0.5,4.0714286 0,3.5714286 0,2.8571429 L 0,-25.714286 q 0,-0.714285 0.5,-1.214285 0.5,-0.5 1.2142857,-0.5 l 14.2857143,0 0,9.714285 z"
                 style="font-size:32px;font-family:FontAwesome;fill:#ffffff"
                 id="path5988" /></g></g></g><text
           transform="translate(307.5386,465.3994)"
           font-size="16"
           id="text102"
           style="font-size:16px;font-family:Jura-DemiBold,Jura;fill:#ffffff">Project</text>
</g><g
         id="g104"><g
           id="g106"><g
             transform="translate(325.7686,329.5146)"
             style="font-size:49.84120178px;font-family:FontAwesome;fill:#ffffff"
             id="text108"><path
               d="m 35.600858,-3.8104044 q 0,3.03163562 -1.752229,5.2010629 -1.724417,2.1694273 -4.171976,2.1694273 l -23.7524477,0 q -2.447559,0 -4.1997887,-2.1694273 Q 0,-0.77876878 0,-3.8104044 0,-6.1745239 0.22250537,-8.2605117 0.4728239,-10.374313 1.1125268,-12.488114 q 0.639703,-2.141614 1.6131639,-3.643525 1.0012742,-1.529724 2.6144381,-2.475372 1.640977,-0.973461 3.754778,-0.973461 3.6435252,3.560086 8.7055222,3.560086 5.061997,0 8.705523,-3.560086 2.113801,0 3.726964,0.973461 1.640978,0.945648 2.614439,2.475372 1.001274,1.501911 1.640977,3.643525 0.639703,2.113801 0.862208,4.2276023 0.250318,2.0859878 0.250318,4.4501073 z M 25.337798,-36.018056 q 3.142889,3.115075 3.142889,7.537369 0,4.422294 -3.142889,7.565183 -3.115075,3.115075 -7.537369,3.115075 -4.422294,0 -7.565182,-3.115075 -3.1150753,-3.142889 -3.1150753,-7.565183 0,-4.422294 3.1150753,-7.537369 3.142888,-3.142888 7.565182,-3.142888 4.422294,0 7.537369,3.142888 z"
               style="font-size:49.84120178px;font-family:FontAwesome;fill:#ffffff"
               id="path5979" /></g></g></g></g><g
       id="g110"><text
         transform="translate(428.2998,269.1914)"
         font-size="16"
         id="text112"
         style="font-size:16px;font-family:Jura-DemiBold,Jura;fill:#ffffff">Department</text>
<g
         id="g114"><path
           stroke-miterlimit="10"
           d="m 535.129,498.537 c 0,4.695 -3.809,8.504 -8.504,8.504 l -104.087,0 c -4.696,0 -8.504,-3.809 -8.504,-8.504 l 0,-245.682 c 0,-4.697 3.808,-8.504 8.504,-8.504 l 104.087,0 c 4.695,0 8.504,3.807 8.504,8.504 l 0,245.682 z"
           id="path116"
           inkscape:connector-curvature="0"
           style="fill:none;stroke:#ffffff;stroke-miterlimit:10;stroke-dasharray:5.0196, 5.0196" /></g><g
         id="g118"><path
           stroke-miterlimit="10"
           d="m 520.122,487.421 c 0,5.033 -4.081,9.114 -9.115,9.114 l -53.833,0 c -5.034,0 -9.115,-4.081 -9.115,-9.114 l 0,-66.998 c 0,-5.033 4.081,-9.115 9.115,-9.115 l 53.833,0 c 5.034,0 9.115,4.082 9.115,9.115 l 0,66.998 z"
           id="path120"
           inkscape:connector-curvature="0"
           style="fill:#df8f32;stroke:#87c987;stroke-width:2;stroke-miterlimit:10" /><path
           stroke-miterlimit="10"
           d="m 513.782,480.748 c 0,5.033 -4.081,9.114 -9.115,9.114 l -53.833,0 c -5.034,0 -9.115,-4.081 -9.115,-9.114 l 0,-66.998 c 0,-5.033 4.081,-9.115 9.115,-9.115 l 53.833,0 c 5.034,0 9.115,4.082 9.115,9.115 l 0,66.998 z"
           id="path122"
           inkscape:connector-curvature="0"
           style="fill:#df8f32;stroke:#87c987;stroke-width:2;stroke-miterlimit:10" /><path
           stroke-miterlimit="10"
           d="m 507.443,474.074 c 0,5.033 -4.082,9.114 -9.115,9.114 l -53.834,0 c -5.033,0 -9.115,-4.081 -9.115,-9.114 l 0,-66.998 c 0,-5.033 4.082,-9.115 9.115,-9.115 l 53.834,0 c 5.033,0 9.115,4.082 9.115,9.115 l 0,66.998 z"
           id="path124"
           inkscape:connector-curvature="0"
           style="fill:#df8f32;stroke:#87c987;stroke-width:2;stroke-miterlimit:10" /><path
           stroke-miterlimit="10"
           d="m 501.104,467.401 c 0,5.033 -4.081,9.114 -9.115,9.114 l -53.833,0 c -5.034,0 -9.115,-4.081 -9.115,-9.114 l 0,-66.998 c 0,-5.033 4.081,-9.115 9.115,-9.115 l 53.833,0 c 5.034,0 9.115,4.082 9.115,9.115 l 0,66.998 z"
           id="path126"
           inkscape:connector-curvature="0"
           style="fill:#df8f32;stroke:#87c987;stroke-width:2;stroke-miterlimit:10" /><g
           id="g128"><g
             id="g130"><g
               transform="translate(451.6582,437.7041)"
               style="font-size:32px;font-family:FontAwesome;fill:#ffffff"
               id="text132"><path
                 d="m 18.285714,-18.285714 0,-8.428572 q 0.392857,0.25 0.642857,0.5 l 7.285715,7.285715 q 0.25,0.25 0.5,0.642857 l -8.428572,0 z M 16,-17.714286 Q 16,-17 16.5,-16.5 17,-16 17.714286,-16 l 9.714285,0 0,18.8571429 q 0,0.7142857 -0.5,1.2142857 -0.5,0.5 -1.214285,0.5 l -24.0000003,0 Q 1,4.5714286 0.5,4.0714286 0,3.5714286 0,2.8571429 L 0,-25.714286 q 0,-0.714285 0.5,-1.214285 0.5,-0.5 1.2142857,-0.5 l 14.2857143,0 0,9.714285 z"
                 style="font-size:32px;font-family:FontAwesome;fill:#ffffff"
                 id="path5985" /></g></g></g><text
           transform="translate(438.5508,465.3994)"
           font-size="16"
           id="text134"
           style="font-size:16px;font-family:Jura-DemiBold,Jura;fill:#ffffff">Project</text>
</g><g
         id="g136"><g
           id="g138"><g
             transform="translate(456.7812,329.5146)"
             style="font-size:49.84120178px;font-family:FontAwesome;fill:#ffffff"
             id="text140"><path
               d="m 35.600858,-3.8104044 q 0,3.03163562 -1.752229,5.2010629 -1.724417,2.1694273 -4.171976,2.1694273 l -23.7524477,0 q -2.447559,0 -4.1997887,-2.1694273 Q 0,-0.77876878 0,-3.8104044 0,-6.1745239 0.22250537,-8.2605117 0.4728239,-10.374313 1.1125268,-12.488114 q 0.639703,-2.141614 1.6131639,-3.643525 1.0012742,-1.529724 2.6144381,-2.475372 1.640977,-0.973461 3.754778,-0.973461 3.6435252,3.560086 8.7055222,3.560086 5.061997,0 8.705523,-3.560086 2.113801,0 3.726964,0.973461 1.640978,0.945648 2.614439,2.475372 1.001274,1.501911 1.640977,3.643525 0.639703,2.113801 0.862208,4.2276023 0.250318,2.0859878 0.250318,4.4501073 z M 25.337798,-36.018056 q 3.142889,3.115075 3.142889,7.537369 0,4.422294 -3.142889,7.565183 -3.115075,3.115075 -7.537369,3.115075 -4.422294,0 -7.565182,-3.115075 -3.1150753,-3.142889 -3.1150753,-7.565183 0,-4.422294 3.1150753,-7.537369 3.142888,-3.142888 7.565182,-3.142888 4.422294,0 7.537369,3.142888 z"
               style="font-size:49.84120178px;font-family:FontAwesome;fill:#ffffff"
               id="path5982" /></g></g></g></g><path
       d="m 277.662,221.849 c 0,5.033 -4.081,9.114 -9.115,9.114 l -107.422,0 c -5.034,0 -9.115,-4.081 -9.115,-9.114 l 0,-66.998 c 0,-5.033 4.081,-9.115 9.115,-9.115 l 107.421,0 c 5.034,0 9.115,4.082 9.115,9.115 l 0,66.998 z"
       id="path154"
       inkscape:connector-curvature="0"
       style="fill:#df8f32" /><text
       transform="translate(326.3037,353.207)"
       font-size="16"
       id="text170"
       style="font-size:16px;font-family:Jura-DemiBold,Jura;fill:#ffffff">Role</text>
<text
       transform="translate(176.8364,221.3037)"
       font-size="15"
       id="text172"
       style="font-size:15px;font-family:Jura-DemiBold,Jura;fill:#ffffff">Exectives</text>
<g
       id="g174"><g
         transform="translate(189.7861,196.458)"
         style="font-size:44px;font-family:FontAwesome;fill:#ffffff"
         id="text176"><path
           d="m 14.560268,-15.714286 q -3.977679,0.122768 -6.5066966,3.142857 l -3.2901785,0 Q 2.75,-12.571429 1.375,-13.553571 0,-14.560268 0,-16.475446 q 0,-8.667411 3.0446429,-8.667411 0.1473214,0 1.0558035,0.515625 0.9330357,0.515625 2.40625,1.055803 1.4732143,0.515625 2.921875,0.515625 1.6450896,0 3.2656246,-0.564732 -0.122767,0.908482 -0.122767,1.620536 0,3.412946 1.988839,6.285714 z m 26.296875,15.64062529 q 0,2.94642861 -1.792411,4.64062501 -1.792411,1.71875 -4.763393,1.71875 l -21.459821,0 q -2.9709823,0 -4.763393,-1.71875 -1.7924107,-1.6941964 -1.7924107,-4.64062501 0,-1.30133929 0.073661,-2.52901789 0.098214,-1.2522321 0.34375,-2.6763393 0.2700893,-1.4486607 0.6629464,-2.6763392 0.3928572,-1.2276786 1.0558036,-2.3816969 0.6629464,-1.178571 1.5223214,-1.988839 0.8593746,-0.834821 2.0870536,-1.325893 1.252232,-0.491071 2.75,-0.491071 0.245536,0 1.055804,0.540178 0.810267,0.515625 1.79241,1.178572 0.982143,0.638393 2.627232,1.178571 1.64509,0.515625 3.314733,0.515625 1.669642,0 3.314732,-0.515625 1.645089,-0.540178 2.627232,-1.178571 0.982143,-0.662947 1.792411,-1.178572 0.810267,-0.540178 1.055803,-0.540178 1.497768,0 2.725447,0.491071 1.252232,0.491072 2.111607,1.325893 0.859375,0.810268 1.522321,1.988839 0.662947,1.1540183 1.055804,2.3816969 0.392857,1.2276785 0.638393,2.6763392 0.270089,1.4241072 0.34375,2.6763393 0.09821,1.2276786 0.09821,2.52901789 z M 13.872768,-35.872768 q 1.841518,1.841518 1.841518,4.444197 0,2.602678 -1.841518,4.444196 -1.841518,1.841518 -4.4441966,1.841518 -2.6026785,0 -4.4441964,-1.841518 -1.8415179,-1.841518 -1.8415179,-4.444196 0,-2.602679 1.8415179,-4.444197 1.8415179,-1.841518 4.4441964,-1.841518 2.6026786,0 4.4441966,1.841518 z m 16.352678,7.21875 Q 33,-25.904018 33,-22 q 0,3.904018 -2.774554,6.678571 -2.75,2.75 -6.654017,2.75 -3.904018,0 -6.678572,-2.75 -2.75,-2.774553 -2.75,-6.678571 0,-3.904018 2.75,-6.654018 2.774554,-2.774553 6.678572,-2.774553 3.904017,0 6.654017,2.774553 z m 16.917411,12.178572 q 0,1.915178 -1.375,2.921875 -1.375,0.982142 -3.388393,0.982142 l -3.290178,0 q -2.529018,-3.020089 -6.506697,-3.142857 1.98884,-2.872768 1.98884,-6.285714 0,-0.712054 -0.122768,-1.620536 1.620535,0.564732 3.265625,0.564732 1.44866,0 2.921875,-0.515625 1.473214,-0.540178 2.381696,-1.055803 0.933036,-0.515625 1.080357,-0.515625 3.044643,0 3.044643,8.667411 z M 42.158482,-35.872768 Q 44,-34.03125 44,-31.428571 q 0,2.602678 -1.841518,4.444196 -1.841518,1.841518 -4.444196,1.841518 -2.602679,0 -4.444197,-1.841518 -1.841518,-1.841518 -1.841518,-4.444196 0,-2.602679 1.841518,-4.444197 1.841518,-1.841518 4.444197,-1.841518 2.602678,0 4.444196,1.841518 z"
           style="font-size:44px;font-family:FontAwesome;fill:#ffffff"
           id="path5973" /></g></g><text
       transform="translate(396.4648,188.3486)"
       font-size="21"
       id="text30"
       style="font-size:21px;font-family:Jura-DemiBold,Jura;fill:#ffffff">Organization</text>
</g></svg>