<?xml version="1.0" encoding="UTF-8" standalone="no"?>
<svg
   xmlns:dc="http://purl.org/dc/elements/1.1/"
   xmlns:cc="http://creativecommons.org/ns#"
   xmlns:rdf="http://www.w3.org/1999/02/22-rdf-syntax-ns#"
   xmlns:svg="http://www.w3.org/2000/svg"
   xmlns="http://www.w3.org/2000/svg"
   xmlns:xlink="http://www.w3.org/1999/xlink"
   xmlns:sodipodi="http://sodipodi.sourceforge.net/DTD/sodipodi-0.dtd"
   xmlns:inkscape="http://www.inkscape.org/namespaces/inkscape"
   width="793.75mm"
   height="300.55667mm"
   viewBox="0 0 2250 851.97164"
   id="svg2"
   version="1.1"
   sodipodi:docname="logo-design.svg"
   inkscape:version="0.92.2 5c3e80d, 2017-08-06">
  <sodipodi:namedview
     pagecolor="#ffffff"
     bordercolor="#666666"
     borderopacity="1"
     objecttolerance="10"
     gridtolerance="10"
     guidetolerance="10"
     inkscape:pageopacity="0"
     inkscape:pageshadow="2"
     inkscape:window-width="2521"
     inkscape:window-height="1312"
     id="namedview4124"
     showgrid="false"
     showguides="false"
     fit-margin-top="40"
     fit-margin-left="0"
     fit-margin-right="0"
     fit-margin-bottom="40"
     inkscape:zoom="0.62"
     inkscape:cx="1519.7319"
     inkscape:cy="617.13703"
     inkscape:window-x="23"
     inkscape:window-y="23"
     inkscape:window-maximized="0"
     inkscape:current-layer="svg2" />
  <defs
     id="defs5" />
  <style
     id="style7">
  
    .white { fill: white; stroke: none; }
    .black { fill: black; stroke: none; }
    .colour { fill: #009600; stroke: none; }
    
    .design { fill: none; stroke: black; stroke-width: 0.5; }
    
    text {
		font-family: Jura;
		-inkscape-font-specification: Jura;
	    font-style: normal;
		font-variant: normal;
		font-weight: normal;
		font-stretch: normal;
		line-height: 100%;
		letter-spacing: 0px;
		word-spacing: 0px;
		writing-mode: lr-tb;
		text-align: center;
		text-anchor: middle;
    }
    
    path {
	    fill-rule: evenodd;
	    fill: inherit;
    }
    
  </style>
  <metadata
     id="metadata7">
    <rdf:RDF>
      <cc:Work
         rdf:about="">
        <dc:format>image/svg+xml</dc:format>
        <dc:type
           rdf:resource="http://purl.org/dc/dcmitype/StillImage" />
        <dc:title></dc:title>
      </cc:Work>
    </rdf:RDF>
  </metadata>
  <g
     style="display:inline"
     id="g3559"
     transform="translate(826.37702,413.38582)">
    <g
       id="g3531"
       style="display:inline">
      <path
         style="fill-rule:evenodd;stroke:#606060;stroke-width:0.3157382"
         id="path3509"
         d="M 200,-200.20004 V 300.20001"
         inkscape:connector-curvature="0" />
      <path
         style="fill-rule:evenodd;stroke:#606060;stroke-width:0.33857384"
         id="path3511"
         d="M 0.13405979,-250.20004 V 325.20001"
         inkscape:connector-curvature="0" />
      <path
         style="fill-rule:evenodd;stroke:#606060;stroke-width:0.2942003"
         id="path3513"
         d="M 285.0451,-169.25954 V 265.20001"
         inkscape:connector-curvature="0" />
      <path
         style="fill-rule:evenodd;stroke:#606060;stroke-width:0.28125927"
         id="path3515"
         d="M 790.37909,-200.20004 V 196.87887"
         inkscape:connector-curvature="0" />
      <path
         style="fill-rule:evenodd;stroke:#606060;stroke-width:0.40000001"
         id="path3517"
         d="m 299.04818,-157.62679 -427.18933,427.1893"
         inkscape:connector-curvature="0" />
      <path
         style="fill-rule:evenodd;stroke:#606060;stroke-width:0.22210905"
         id="path3519"
         d="M 912.5592,-119.25959 H -111.66681"
         inkscape:connector-curvature="0" />
      <path
         style="fill-rule:evenodd;stroke:#606060;stroke-width:0.25098693"
         id="path3521"
         d="M -343.3136,-7.0710925 H 964.5592"
         inkscape:connector-curvature="0" />
      <path
         style="fill-rule:evenodd;stroke:#606060;stroke-width:0.24446242"
         id="path3523"
         d="M -300.20001,7.0711075 H 940.5592"
         inkscape:connector-curvature="0" />
      <path
         style="fill-rule:evenodd;stroke:#606060;stroke-width:0.21280386"
         id="path3525"
         d="M 890.55914,46.878907 H -49.645251"
         inkscape:connector-curvature="0" />
      <circle
         id="circle3527"
         r="200"
         cy="0"
         cx="0"
         style="fill:none;stroke:#606060;stroke-width:0.40000001;stroke-dasharray:5, 5;stroke-dashoffset:0" />
      <path
         d="M -241.45996,100.03861 157.62681,-299.04816"
         id="path3529"
         style="fill-rule:evenodd;stroke:#606060;stroke-width:0.40000001"
         inkscape:connector-curvature="0" />
    </g>
    <g
       id="g3555"
       style="fill:none">
      <use
         id="use3549"
         class="design"
         xlink:href="#logo"
         style="fill:none;stroke:#000000;stroke-width:0.5"
         x="0"
         y="0"
         width="100%"
         height="100%" />
      <use
         id="use3551"
         class="design"
         xlink:href="#name-horizontal"
         style="fill:none;stroke:#000000;stroke-width:0.5"
         x="0"
         y="0"
         width="100%"
         height="100%" />
      <use
         id="use3553"
         class="design"
         xlink:href="#tagline"
         style="fill:none;stroke:#000000;stroke-width:0.5"
         x="0"
         y="0"
         width="100%"
         height="100%" />
    </g>
    <use
       id="use3557"
       class="colour"
       xlink:href="#logo-arrow"
       style="opacity:0.3;fill:#009600;stroke:none"
       x="0"
       y="0"
       width="100%"
       height="100%" />
  </g>
  <g
     id="g138"
     style="display:none"
     transform="translate(826.37702,413.38582)">
    <use
       height="100%"
       width="100%"
       y="-9.1218491"
       x="539.25018"
       xlink:href="#name"
       id="name-horizontal"
       class="design"
       style="fill:none;stroke:#000000;stroke-width:0.5" />
    <g
       id="logo">
      <path
         style="fill-opacity:1;fill-rule:evenodd"
         d="M 7.0710678,-148.49242 V -7.0710678 H 148.49242 l 44.54221,-44.5422052 a 200,200 0 0 0 -51.61327,-89.808087 200,200 0 0 0 -89.860569,-51.56079 z"
         y="0"
         x="0"
         id="logo-arrow"
         inkscape:connector-curvature="0" />
      <use
         height="100%"
         width="100%"
         y="0"
         x="0"
         id="use123"
         transform="rotate(90)"
         xlink:href="#logo-arrow" />
      <use
         height="100%"
         width="100%"
         y="0"
         x="0"
         id="use125"
         transform="scale(-1)"
         xlink:href="#logo-arrow" />
      <use
         height="100%"
         width="100%"
         y="0"
         x="0"
         id="use127"
         transform="rotate(-90)"
         xlink:href="#logo-arrow" />
    </g>
    <g
       aria-label="xodiac"
       style="font-style:normal;font-variant:normal;font-weight:normal;font-stretch:normal;font-size:175px;line-height:100%;font-family:Jura;-inkscape-font-specification:Jura;text-align:center;letter-spacing:0px;word-spacing:0px;writing-mode:lr-tb;text-anchor:middle;fill-opacity:1"
       id="name">
      <path
         d="m -180.12695,-2.0507813 q 0,1.70898442 -1.36719,2.73437505 -1.36719,1.19628905 -2.90527,1.19628905 -2.05079,0 -4.10157,-2.05078124 l -28.36914,-32.98339856 -28.54004,32.98339856 q -2.39257,2.05078124 -4.27246,2.05078124 -1.53808,0 -2.90527,-1.19628905 -1.36719,-1.02539063 -1.36719,-2.73437505 0,-0.6835937 1.70899,-4.1015624 l 29.22363,-33.1542973 -29.22363,-33.325195 q -1.70899,-2.050781 -1.70899,-3.930664 0,-1.708984 1.36719,-2.905273 1.36719,-1.196289 2.90527,-1.196289 1.87989,0 4.27246,2.050781 l 28.54004,32.983398 28.36914,-32.983398 q 2.05078,-2.050781 4.10157,-2.050781 1.53808,0 2.90527,1.196289 1.36719,1.196289 1.36719,2.905273 0,1.879883 -1.70899,3.930664 l -29.22363,33.325195 29.22363,33.1542973 q 1.70899,2.5634765 1.70899,4.1015624 z"
         style="fill-rule:evenodd"
         id="path6660"
         inkscape:connector-curvature="0" />
      <path
         d="m -120.99609,0 h -4.95606 q -19.65332,0 -28.88183,-5.9814453 -9.22852,-6.1523437 -9.22852,-24.0966797 v -18.62793 q 0,-17.944336 9.22852,-23.925781 9.22851,-6.152344 28.88183,-6.152344 h 4.95606 q 19.65332,0 28.710934,6.152344 9.228515,5.981445 9.228515,23.925781 v 18.62793 q 0,17.944336 -9.228515,24.0966797 Q -101.34277,0 -120.99609,0 Z m -4.95606,-8.8867188 h 4.95606 q 8.71582,0 13.33007,-0.5126953 4.78516,-0.6835939 8.715825,-2.7343749 4.101562,-2.22168 5.46875,-6.494141 1.538086,-4.272461 1.538086,-11.621093 v -18.286133 q 0,-7.348633 -1.538086,-11.621094 -1.367188,-4.272461 -5.46875,-6.323242 -3.930665,-2.22168 -8.715825,-2.734375 -4.61425,-0.683594 -13.33007,-0.683594 h -4.95606 q -8.71582,0 -13.50097,0.683594 -4.61426,0.512695 -8.71583,2.734375 -4.10156,2.050781 -5.63964,6.323242 -1.36719,4.272461 -1.36719,11.621094 v 18.286133 q 0,7.348632 1.36719,11.621093 1.53808,4.272461 5.63964,6.494141 4.10157,2.050781 8.71583,2.7343749 4.78515,0.5126953 13.50097,0.5126953 z"
         style="fill-rule:evenodd"
         id="path6662"
         inkscape:connector-curvature="0" />
      <path
         d="m 10.253906,-78.78418 v -24.95117 q 0,-6.15235 4.785157,-6.15235 4.101562,0 4.101562,6.15235 v 99.1210922 q 0,5.8105469 -4.443359,5.8105469 -4.44336,0 -4.44336,-5.9814453 V -10.766602 Q 0.17089844,0 -18.969727,0 h -4.956054 q -19.653321,0 -28.881836,-5.9814453 -9.057617,-6.1523437 -9.057617,-24.0966797 v -18.62793 q 0,-17.944336 9.057617,-23.925781 9.228515,-6.152344 28.881836,-6.152344 z m 0,8.886719 h -34.179687 q -8.715821,0 -13.500977,0.683594 -4.614258,0.512695 -8.71582,2.734375 -3.930664,2.050781 -5.46875,6.323242 -1.367188,4.272461 -1.367188,11.621094 v 18.286133 q 0,7.348632 1.367188,11.621093 1.538086,4.272461 5.46875,6.494141 4.101562,2.050781 8.71582,2.7343749 4.785156,0.5126953 13.500977,0.5126953 h 4.956054 q 29.223633,0 29.223633,-30.0781252 z"
         style="fill-rule:evenodd"
         id="path6664"
         inkscape:connector-curvature="0" />
      <path
         d="m 49.047852,2.0507813 q -4.272461,0 -4.272461,-5.4687501 V -75.195312 q 0,-5.639649 4.443359,-5.639649 4.443359,0 4.443359,5.639649 v 71.7773432 q 0,5.4687501 -4.614257,5.4687501 z M 49.21875,-109.7168 q 2.734375,0 5.639648,2.05078 3.076172,2.05079 3.076172,4.95606 0,2.905273 -3.076172,4.956054 -2.905273,2.050781 -5.639648,2.050781 -2.905273,0 -5.810547,-2.050781 -2.905273,-2.050781 -2.905273,-4.956054 0,-2.90527 2.905273,-4.95606 2.905274,-2.05078 5.810547,-2.05078 z"
         style="fill-rule:evenodd"
         id="path6666"
         inkscape:connector-curvature="0" />
      <path
         d="m 114.67285,-41.52832 q -8.71582,0 -13.50097,0.683593 -4.614263,0.512696 -8.715825,2.734375 -4.101563,2.050782 -5.639649,6.323243 -1.367187,4.272461 -1.367187,11.621093 0,4.44336 2.905273,7.861328 2.905274,3.4179692 6.494141,3.4179692 h 15.893557 q 14.35547,0 21.7041,-7.6904292 7.34863,-7.861329 7.34863,-22.387696 v -2.563476 z m 0,-8.886719 h 25.12207 v -9.741211 q 0,-5.297852 -2.05078,-7.519531 -1.87988,-2.22168 -7.34863,-2.22168 h -24.09668 q -20.849611,0 -20.849611,10.253906 0,5.981446 -4.614258,5.981446 -4.272461,0 -4.272461,-5.981446 0,-9.912109 7.861328,-14.526367 7.861328,-4.614258 20.678712,-4.614258 h 26.48926 q 9.91211,0 13.50097,4.785157 3.58887,4.785156 3.58887,16.748046 v 52.6367192 q 0,5.8105469 -4.44336,5.8105469 -4.44336,0 -4.44336,-5.9814453 V -10.766602 Q 130.05371,0 110.74219,0 H 94.848633 Q 86.816406,0 81.689453,-5.6396484 76.5625,-11.450195 76.5625,-21.020508 q 0,-17.260742 9.228516,-23.242187 9.399414,-6.152344 28.881834,-6.152344 z"
         style="fill-rule:evenodd"
         id="path6668"
         inkscape:connector-curvature="0" />
      <path
         d="m 233.78906,0 h -24.09668 q -19.65332,0 -28.88183,-5.9814453 -9.22852,-6.1523437 -9.22852,-24.0966797 v -18.62793 q 0,-17.944336 9.22852,-23.925781 9.22851,-6.152344 28.88183,-6.152344 h 24.09668 q 5.46875,0 9.05762,1.708985 3.75977,1.538086 5.29785,4.614258 1.70899,3.076171 2.22168,5.981445 0.5127,2.905273 0.5127,6.835937 0,5.981446 -4.44336,5.981446 -4.44336,0 -4.44336,-5.639649 0,-5.981445 -2.05078,-8.203125 -2.05079,-2.392578 -7.34864,-2.392578 h -22.90039 q -8.71582,0 -13.50097,0.683594 -4.61426,0.512695 -8.71582,2.734375 -4.10157,2.050781 -5.63965,6.323242 -1.36719,4.272461 -1.36719,11.621094 v 18.286133 q 0,7.348632 1.36719,11.621093 1.53808,4.272461 5.63965,6.494141 4.10156,2.050781 8.71582,2.7343749 4.78515,0.5126953 13.50097,0.5126953 h 22.90039 q 5.46875,0 7.34864,-2.3925782 2.05078,-2.392578 2.05078,-8.203125 0,-5.639648 4.44336,-5.639648 4.44336,0 4.44336,6.152343 0,3.930664 -0.5127,6.835938 -0.51269,2.9052734 -2.22168,5.9814453 -1.53808,2.9052734 -5.29785,4.6142578 Q 239.25781,0 233.78906,0 Z"
         style="fill-rule:evenodd"
         id="path6670"
         inkscape:connector-curvature="0" />
    </g>
    <g
       aria-label="making every team thrive"
       style="font-style:normal;font-variant:normal;font-weight:normal;font-stretch:normal;font-size:44.6875px;line-height:100%;font-family:Jura;-inkscape-font-specification:Jura;text-align:center;letter-spacing:0px;word-spacing:0px;writing-mode:lr-tb;text-anchor:middle;fill-opacity:1"
       id="tagline">
      <path
         d="m 293.02979,19.833824 q -2.70569,0 -4.2331,2.007446 -1.48376,2.007447 -1.48376,5.760498 v 8.902588 q 0,1.483765 -1.13465,1.483765 -1.13464,0 -1.13464,-1.483765 V 18.786461 q 0,-1.527405 1.04736,-1.527405 1.22193,0 1.22193,1.571045 v 1.483765 q 1.22192,-1.483765 2.48749,-2.094727 1.26556,-0.654602 3.22937,-0.654602 2.96752,0 4.80041,0.741882 1.83289,0.698243 2.66205,2.749329 2.22565,-3.491211 6.4151,-3.491211 4.01489,0 6.02234,1.571045 2.00744,1.571045 2.00744,6.109619 v 11.259155 q 0,1.483765 -1.13464,1.483765 -1.13464,0 -1.13464,-1.483765 V 25.288841 q 0,-1.876526 -0.30548,-2.967529 -0.26185,-1.091003 -1.04737,-1.614685 -0.78552,-0.567322 -1.7456,-0.698242 -0.91645,-0.174561 -2.66205,-0.174561 -2.74933,0 -4.27673,2.007446 -1.52741,2.007447 -1.52741,5.760498 v 8.902588 q 0,1.483765 -1.091,1.483765 -1.17829,0 -1.17829,-1.483765 V 25.288841 q 0,-3.534851 -1.22192,-4.494934 -1.17828,-0.960083 -4.58221,-0.960083 z"
         style="fill-rule:evenodd"
         id="path6673"
         inkscape:connector-curvature="0" />
      <path
         d="m 330.38574,27.078087 q -2.22564,0 -3.44757,0.17456 -1.17828,0.130921 -2.22565,0.698243 -1.04736,0.523681 -1.44012,1.614685 -0.34912,1.091003 -0.34912,2.967529 0,1.134643 0.74188,2.007446 0.74188,0.872803 1.65833,0.872803 h 4.05853 q 3.66577,0 5.5423,-1.963806 1.87652,-2.007446 1.87652,-5.716858 v -0.654602 z m 0,-2.269287 h 6.4151 v -2.487488 q 0,-1.352844 -0.52368,-1.920166 -0.48004,-0.567322 -1.87653,-0.567322 h -6.15325 q -5.3241,0 -5.3241,2.618408 0,1.527405 -1.17828,1.527405 -1.09101,0 -1.09101,-1.527405 0,-2.531128 2.00745,-3.709411 2.00744,-1.178284 5.28045,-1.178284 h 6.76423 q 2.53112,0 3.44757,1.221924 0.91644,1.221924 0.91644,4.276733 v 13.441162 q 0,1.483765 -1.13464,1.483765 -1.13465,0 -1.13465,-1.527405 v -1.527405 q -2.48749,2.749329 -7.41882,2.749329 h -4.05853 q -2.05109,0 -3.36029,-1.440124 -1.30921,-1.483765 -1.30921,-3.927613 0,-4.407654 2.35657,-5.935058 2.40021,-1.571045 7.37518,-1.571045 z"
         style="fill-rule:evenodd"
         id="path6675"
         inkscape:connector-curvature="0" />
      <path
         d="m 361.50116,36.853477 q 0,0.392762 -0.30548,0.741883 -0.30548,0.349121 -0.74188,0.349121 -0.48005,0 -1.09101,-0.523682 l -10.34271,-9.993591 -1.26556,1.265564 v 7.898865 q 0,1.396484 -1.17829,1.396484 -1.091,0 -1.091,-1.352844 v -25.57312 q 0,-1.4401248 1.13464,-1.4401248 1.13465,0 1.13465,1.4401248 v 14.881286 l 8.46618,-8.073425 q 0.56732,-0.523682 1.04737,-0.523682 0.39276,0 0.74188,0.349121 0.34912,0.305481 0.34912,0.785523 0,0.480041 -0.52368,1.003723 l -7.24426,6.633301 10.42999,9.68811 q 0.48004,0.567322 0.48004,1.047363 z"
         style="fill-rule:evenodd"
         id="path6677"
         inkscape:connector-curvature="0" />
      <path
         d="m 366.34521,38.206322 q -1.091,0 -1.091,-1.396485 V 18.48098 q 0,-1.440125 1.13464,-1.440125 1.13465,0 1.13465,1.440125 v 18.328857 q 0,1.396485 -1.17829,1.396485 z m 0.0436,-28.5406497 q 0.69825,0 1.44013,0.5236817 0.78552,0.523682 0.78552,1.265564 0,0.741882 -0.78552,1.265564 -0.74188,0.523682 -1.44013,0.523682 -0.74188,0 -1.48376,-0.523682 -0.74188,-0.523682 -0.74188,-1.265564 0,-0.741882 0.74188,-1.265564 0.74188,-0.5236817 1.48376,-0.5236817 z"
         style="fill-rule:evenodd"
         id="path6679"
         inkscape:connector-curvature="0" />
      <path
         d="m 383.71399,19.833824 q -3.70941,0 -5.58594,2.007446 -1.87652,1.963807 -1.87652,5.760498 v 8.902588 q 0,1.483765 -1.13465,1.483765 -1.13464,0 -1.13464,-1.483765 V 18.786461 q 0,-1.527405 1.04736,-1.527405 1.22193,0 1.22193,1.571045 v 1.483765 q 2.57476,-2.749329 7.46246,-2.749329 h 1.26556 q 5.01862,0 7.33155,1.571045 2.35656,1.527405 2.35656,6.109619 v 11.259155 q 0,1.483765 -1.091,1.483765 -1.17828,0 -1.17828,-1.483765 V 25.288841 q 0,-1.876526 -0.39276,-2.967529 -0.34913,-1.091003 -1.39649,-1.614685 -1.00372,-0.567322 -2.22565,-0.698242 -1.17828,-0.174561 -3.40393,-0.174561 z"
         style="fill-rule:evenodd"
         id="path6681"
         inkscape:connector-curvature="0" />
      <path
         d="m 421.11359,41.479332 q 0,2.836609 -0.82917,3.971252 -0.82916,1.178284 -3.14209,1.178284 h -12.35015 q -1.39649,0 -2.35657,-0.436401 -0.91644,-0.392761 -1.35285,-1.178284 -0.39276,-0.785522 -0.52368,-1.527405 -0.13092,-0.741882 -0.13092,-1.745605 0,-1.527405 1.13465,-1.527405 1.13464,0 1.13464,1.440125 0,1.527404 0.52368,2.094726 0.52368,0.610962 1.87653,0.610962 h 11.73919 q 1.26557,0 1.61469,-0.436401 0.39276,-0.436402 0.39276,-1.745606 V 37.68264 h -8.72803 q -5.01861,0 -7.37518,-1.527405 -2.31293,-1.571045 -2.31293,-6.153259 v -4.756775 q 0,-4.582214 2.31293,-6.109619 2.35657,-1.571045 7.37518,-1.571045 h 1.26557 q 4.88769,0 7.46246,2.749329 v -1.527405 q 0,-1.527405 1.13464,-1.527405 1.13465,0 1.13465,1.483765 z m -2.26929,-6.065979 v -7.898865 q 0,-7.680664 -7.46246,-7.680664 h -1.26557 q -2.22565,0 -3.44757,0.174561 -1.17828,0.13092 -2.22565,0.698242 -1.00372,0.523682 -1.39648,1.614685 -0.34912,1.091003 -0.34912,2.967529 v 4.669495 q 0,1.876526 0.34912,2.967529 0.39276,1.091004 1.39648,1.658325 1.04737,0.523682 2.22565,0.698243 1.22192,0.13092 3.44757,0.13092 z"
         style="fill-rule:evenodd"
         id="path6683"
         inkscape:connector-curvature="0" />
      <path
         d="m 459.16779,25.245201 v 1.745606 h -18.41614 v 2.967529 q 0,1.876526 0.34912,2.967529 0.39276,1.091004 1.44012,1.658325 1.04737,0.523682 2.22565,0.698243 1.22192,0.13092 3.44757,0.13092 h 5.84778 q 1.39648,0 1.87653,-0.610962 0.52368,-0.610962 0.52368,-2.094727 0,-1.440124 1.13464,-1.440124 1.13464,0 1.13464,1.571045 0,1.003723 -0.13092,1.745605 -0.13092,0.741883 -0.56732,1.527405 -0.39276,0.741882 -1.35284,1.178284 -0.91645,0.392761 -2.31293,0.392761 h -6.15326 q -5.01861,0 -7.37518,-1.527405 -2.35657,-1.571045 -2.35657,-6.153259 v -4.756775 q 0,-4.582214 2.35657,-6.109619 2.35657,-1.571045 7.37518,-1.571045 h 1.26557 q 5.01861,0 7.33154,1.571045 2.35657,1.527405 2.35657,6.109619 z m -9.68811,-5.411377 h -1.26557 q -4.23309,0 -5.84778,0.916443 -1.57104,0.872803 -1.61468,3.971252 h 16.14685 q -0.0436,-3.098449 -1.65833,-3.971252 -1.57104,-0.916443 -5.76049,-0.916443 z"
         style="fill-rule:evenodd"
         id="path6685"
         inkscape:connector-curvature="0" />
      <path
         d="m 470.86334,37.68264 -7.85522,-19.0271 q -0.17456,-0.392761 -0.17456,-0.698242 0,-0.916443 1.04736,-0.916443 0.78552,0 1.22192,0.960083 l 7.50611,17.456055 7.76794,-17.499695 q 0.39276,-0.916443 1.22193,-0.916443 1.04736,0 1.04736,0.872803 0,0.349121 -0.17456,0.741882 l -8.37891,19.0271 z"
         style="fill-rule:evenodd"
         id="path6687"
         inkscape:connector-curvature="0" />
      <path
         d="m 507.08466,25.245201 v 1.745606 h -18.41614 v 2.967529 q 0,1.876526 0.34912,2.967529 0.39276,1.091004 1.44012,1.658325 1.04737,0.523682 2.22565,0.698243 1.22192,0.13092 3.44757,0.13092 h 5.84778 q 1.39648,0 1.87653,-0.610962 0.52368,-0.610962 0.52368,-2.094727 0,-1.440124 1.13464,-1.440124 1.13464,0 1.13464,1.571045 0,1.003723 -0.13092,1.745605 -0.13092,0.741883 -0.56732,1.527405 -0.39276,0.741882 -1.35284,1.178284 -0.91644,0.392761 -2.31293,0.392761 h -6.15326 q -5.01861,0 -7.37518,-1.527405 -2.35657,-1.571045 -2.35657,-6.153259 v -4.756775 q 0,-4.582214 2.35657,-6.109619 2.35657,-1.571045 7.37518,-1.571045 h 1.26557 q 5.01861,0 7.33154,1.571045 2.35657,1.527405 2.35657,6.109619 z m -9.68811,-5.411377 h -1.26557 q -4.23309,0 -5.84778,0.916443 -1.57104,0.872803 -1.61468,3.971252 h 16.14685 q -0.0436,-3.098449 -1.65833,-3.971252 -1.57104,-0.916443 -5.76049,-0.916443 z"
         style="fill-rule:evenodd"
         id="path6689"
         inkscape:connector-curvature="0" />
      <path
         d="m 522.05322,19.833824 q -3.40393,0 -5.23681,2.007446 -1.78925,2.007447 -1.78925,5.760498 v 8.902588 q 0,1.483765 -1.13464,1.483765 -1.13465,0 -1.13465,-1.483765 V 18.786461 q 0,-1.527405 1.04737,-1.527405 1.22192,0 1.22192,1.571045 v 1.483765 q 2.57477,-2.749329 7.02606,-2.749329 h 2.00745 q 1.5274,0 1.5274,1.134644 0,1.134643 -1.5274,1.134643 z"
         style="fill-rule:evenodd"
         id="path6691"
         inkscape:connector-curvature="0" />
      <path
         d="m 550.02655,41.479332 q 0,2.836609 -0.82916,3.971252 -0.82916,1.178284 -3.14209,1.178284 h -12.35016 q -1.39649,0 -2.35657,-0.436401 -0.91644,-0.392761 -1.35284,-1.178284 -0.39276,-0.785522 -0.52368,-1.527405 -0.13092,-0.741882 -0.13092,-1.745605 0,-1.527405 1.13464,-1.527405 1.13464,0 1.13464,1.440125 0,1.527404 0.52368,2.094726 0.52369,0.610962 1.87653,0.610962 h 11.7392 q 1.26556,0 1.61468,-0.436401 0.39276,-0.436402 0.39276,-1.745606 v -7.244263 q -2.57476,2.749329 -7.46246,2.749329 h -1.26556 q -5.01862,0 -7.37519,-1.527405 -2.31292,-1.571045 -2.31292,-6.153259 V 18.742821 q 0,-1.483765 1.091,-1.483765 1.17828,0 1.17828,1.483765 v 11.215515 q 0,1.876526 0.34912,2.967529 0.39276,1.091004 1.39649,1.658325 1.04736,0.523682 2.22565,0.698243 1.22192,0.13092 3.44757,0.13092 h 1.26556 q 3.70941,0 5.58594,-1.963806 1.87652,-2.007446 1.87652,-5.804138 v -8.902588 q 0,-1.483765 1.13465,-1.483765 1.13464,0 1.13464,1.483765 z"
         style="fill-rule:evenodd"
         id="path6693"
         inkscape:connector-curvature="0" />
      <path
         d="m 570.36285,29.958336 q 0,3.534851 1.48377,4.494934 1.5274,0.960083 5.5423,0.960083 1.5274,0 1.5274,1.047363 0,1.221924 -1.5274,1.221924 -4.71314,0 -7.02607,-1.571045 -2.26928,-1.571045 -2.26928,-6.109619 V 19.790184 q -1.35285,-0.08728 -1.35285,-1.178284 0,-0.960083 1.35285,-1.047363 v -4.538574 q 0,-1.571045 1.04736,-1.571045 1.22192,0 1.22192,1.571045 v 4.538574 h 6.02234 q 1.57105,0 1.57105,1.221924 0,1.047363 -1.57105,1.047363 h -6.02234 z"
         style="fill-rule:evenodd"
         id="path6695"
         inkscape:connector-curvature="0" />
      <path
         d="m 603.09296,25.245201 v 1.745606 h -18.41614 v 2.967529 q 0,1.876526 0.34912,2.967529 0.39276,1.091004 1.44012,1.658325 1.04737,0.523682 2.22565,0.698243 1.22193,0.13092 3.44757,0.13092 h 5.84778 q 1.39648,0 1.87653,-0.610962 0.52368,-0.610962 0.52368,-2.094727 0,-1.440124 1.13464,-1.440124 1.13465,0 1.13465,1.571045 0,1.003723 -0.13093,1.745605 -0.13092,0.741883 -0.56732,1.527405 -0.39276,0.741882 -1.35284,1.178284 -0.91644,0.392761 -2.31293,0.392761 h -6.15326 q -5.01861,0 -7.37518,-1.527405 -2.35657,-1.571045 -2.35657,-6.153259 v -4.756775 q 0,-4.582214 2.35657,-6.109619 2.35657,-1.571045 7.37518,-1.571045 h 1.26557 q 5.01861,0 7.33154,1.571045 2.35657,1.527405 2.35657,6.109619 z m -9.68811,-5.411377 h -1.26557 q -4.23309,0 -5.84778,0.916443 -1.57104,0.872803 -1.61468,3.971252 h 16.14685 q -0.0436,-3.098449 -1.65833,-3.971252 -1.57104,-0.916443 -5.76049,-0.916443 z"
         style="fill-rule:evenodd"
         id="path6697"
         inkscape:connector-curvature="0" />
      <path
         d="m 617.88696,27.078087 q -2.22564,0 -3.44757,0.17456 -1.17828,0.130921 -2.22564,0.698243 -1.04737,0.523681 -1.44013,1.614685 -0.34912,1.091003 -0.34912,2.967529 0,1.134643 0.74188,2.007446 0.74188,0.872803 1.65833,0.872803 h 4.05853 q 3.66577,0 5.5423,-1.963806 1.87652,-2.007446 1.87652,-5.716858 v -0.654602 z m 0,-2.269287 h 6.4151 v -2.487488 q 0,-1.352844 -0.52368,-1.920166 -0.48004,-0.567322 -1.87652,-0.567322 h -6.15326 q -5.3241,0 -5.3241,2.618408 0,1.527405 -1.17828,1.527405 -1.09101,0 -1.09101,-1.527405 0,-2.531128 2.00745,-3.709411 2.00744,-1.178284 5.28046,-1.178284 h 6.76422 q 2.53112,0 3.44757,1.221924 0.91644,1.221924 0.91644,4.276733 v 13.441162 q 0,1.483765 -1.13464,1.483765 -1.13465,0 -1.13465,-1.527405 v -1.527405 q -2.48748,2.749329 -7.41882,2.749329 h -4.05853 q -2.05109,0 -3.36029,-1.440124 -1.30921,-1.483765 -1.30921,-3.927613 0,-4.407654 2.35657,-5.935058 2.40021,-1.571045 7.37518,-1.571045 z"
         style="fill-rule:evenodd"
         id="path6699"
         inkscape:connector-curvature="0" />
      <path
         d="m 640.92896,19.833824 q -2.70569,0 -4.2331,2.007446 -1.48376,2.007447 -1.48376,5.760498 v 8.902588 q 0,1.483765 -1.13465,1.483765 -1.13464,0 -1.13464,-1.483765 V 18.786461 q 0,-1.527405 1.04736,-1.527405 1.22193,0 1.22193,1.571045 v 1.483765 q 1.22192,-1.483765 2.48748,-2.094727 1.26557,-0.654602 3.22938,-0.654602 2.96752,0 4.80041,0.741882 1.83289,0.698243 2.66205,2.749329 2.22565,-3.491211 6.4151,-3.491211 4.01489,0 6.02234,1.571045 2.00744,1.571045 2.00744,6.109619 v 11.259155 q 0,1.483765 -1.13464,1.483765 -1.13464,0 -1.13464,-1.483765 V 25.288841 q 0,-1.876526 -0.30548,-2.967529 -0.26185,-1.091003 -1.04737,-1.614685 -0.78552,-0.567322 -1.7456,-0.698242 -0.91645,-0.174561 -2.66205,-0.174561 -2.74933,0 -4.27673,2.007446 -1.52741,2.007447 -1.52741,5.760498 v 8.902588 q 0,1.483765 -1.091,1.483765 -1.17829,0 -1.17829,-1.483765 V 25.288841 q 0,-3.534851 -1.22192,-4.494934 -1.17828,-0.960083 -4.58221,-0.960083 z"
         style="fill-rule:evenodd"
         id="path6701"
         inkscape:connector-curvature="0" />
      <path
         d="m 682.95441,29.958336 q 0,3.534851 1.48376,4.494934 1.52741,0.960083 5.5423,0.960083 1.5274,0 1.5274,1.047363 0,1.221924 -1.5274,1.221924 -4.71314,0 -7.02606,-1.571045 -2.26929,-1.571045 -2.26929,-6.109619 V 19.790184 q -1.35284,-0.08728 -1.35284,-1.178284 0,-0.960083 1.35284,-1.047363 v -4.538574 q 0,-1.571045 1.04736,-1.571045 1.22193,0 1.22193,1.571045 v 4.538574 h 6.02234 q 1.57104,0 1.57104,1.221924 0,1.047363 -1.57104,1.047363 h -6.02234 z"
         style="fill-rule:evenodd"
         id="path6703"
         inkscape:connector-curvature="0" />
      <path
         d="m 705.29816,19.833824 q -3.70941,0 -5.58594,2.007446 -1.87653,1.963807 -1.87653,5.760498 v 8.902588 q 0,1.483765 -1.13464,1.483765 -1.13464,0 -1.13464,-1.483765 V 11.193077 q 0,-1.5710448 1.04736,-1.5710448 1.22192,0 1.22192,1.5710448 v 9.120789 q 2.57477,-2.749329 7.46247,-2.749329 h 1.26556 q 5.01862,0 7.33154,1.571045 2.35657,1.527405 2.35657,6.109619 v 11.259155 q 0,1.483765 -1.091,1.483765 -1.17829,0 -1.17829,-1.483765 V 25.288841 q 0,-1.876526 -0.39276,-2.967529 -0.34912,-1.091003 -1.39648,-1.614685 -1.00372,-0.567322 -2.22565,-0.698242 -1.17828,-0.174561 -3.40393,-0.174561 z"
         style="fill-rule:evenodd"
         id="path6705"
         inkscape:connector-curvature="0" />
      <path
         d="m 731.875,19.833824 q -3.40393,0 -5.23682,2.007446 -1.78924,2.007447 -1.78924,5.760498 v 8.902588 q 0,1.483765 -1.13465,1.483765 -1.13464,0 -1.13464,-1.483765 V 18.786461 q 0,-1.527405 1.04736,-1.527405 1.22193,0 1.22193,1.571045 v 1.483765 q 2.57477,-2.749329 7.02606,-2.749329 h 2.00745 q 1.5274,0 1.5274,1.134644 0,1.134643 -1.5274,1.134643 z"
         style="fill-rule:evenodd"
         id="path6707"
         inkscape:connector-curvature="0" />
      <path
         d="m 740.42847,38.206322 q -1.09101,0 -1.09101,-1.396485 V 18.48098 q 0,-1.440125 1.13465,-1.440125 1.13464,0 1.13464,1.440125 v 18.328857 q 0,1.396485 -1.17828,1.396485 z m 0.0436,-28.5406497 q 0.69824,0 1.44012,0.5236817 0.78552,0.523682 0.78552,1.265564 0,0.741882 -0.78552,1.265564 -0.74188,0.523682 -1.44012,0.523682 -0.74189,0 -1.48377,-0.523682 -0.74188,-0.523682 -0.74188,-1.265564 0,-0.741882 0.74188,-1.265564 0.74188,-0.5236817 1.48377,-0.5236817 z"
         style="fill-rule:evenodd"
         id="path6709"
         inkscape:connector-curvature="0" />
      <path
         d="m 754.08783,37.68264 -7.85523,-19.0271 q -0.17456,-0.392761 -0.17456,-0.698242 0,-0.916443 1.04737,-0.916443 0.78552,0 1.22192,0.960083 l 7.50611,17.456055 7.76794,-17.499695 q 0.39276,-0.916443 1.22192,-0.916443 1.04737,0 1.04737,0.872803 0,0.349121 -0.17456,0.741882 l -8.37891,19.0271 z"
         style="fill-rule:evenodd"
         id="path6711"
         inkscape:connector-curvature="0" />
      <path
         d="m 790.30914,25.245201 v 1.745606 h -18.41613 v 2.967529 q 0,1.876526 0.34912,2.967529 0.39276,1.091004 1.44012,1.658325 1.04736,0.523682 2.22565,0.698243 1.22192,0.13092 3.44757,0.13092 h 5.84778 q 1.39648,0 1.87652,-0.610962 0.52368,-0.610962 0.52368,-2.094727 0,-1.440124 1.13465,-1.440124 1.13464,0 1.13464,1.571045 0,1.003723 -0.13092,1.745605 -0.13092,0.741883 -0.56732,1.527405 -0.39276,0.741882 -1.35284,1.178284 -0.91645,0.392761 -2.31293,0.392761 h -6.15326 q -5.01862,0 -7.37518,-1.527405 -2.35657,-1.571045 -2.35657,-6.153259 v -4.756775 q 0,-4.582214 2.35657,-6.109619 2.35656,-1.571045 7.37518,-1.571045 h 1.26556 q 5.01862,0 7.33155,1.571045 2.35656,1.527405 2.35656,6.109619 z m -9.68811,-5.411377 h -1.26556 q -4.23309,0 -5.84778,0.916443 -1.57104,0.872803 -1.61468,3.971252 h 16.14685 q -0.0436,-3.098449 -1.65833,-3.971252 -1.57104,-0.916443 -5.7605,-0.916443 z"
         style="fill-rule:evenodd"
         id="path6713"
         inkscape:connector-curvature="0" />
    </g>
  </g>
  <rect
     style="opacity:1;fill:none;fill-opacity:1;stroke:none;stroke-width:4;stroke-miterlimit:4;stroke-dasharray:none;stroke-dashoffset:0;stroke-opacity:1"
     id="rect6719"
     width="2250"
     height="600"
     x="0"
     y="113.38583" />
</svg>
